<?xml version="1.0" encoding="UTF-8"?>
<svg id="Layer_1" data-name="Layer 1" xmlns="http://www.w3.org/2000/svg" viewBox="0 0 367.53 355.16">
  <defs>
    <style>
      .cls-1 {
        fill: #523c2f;
      }

      .cls-2 {
        fill: #bbaca1;
      }

      .cls-3 {
        fill: #dcd2cc;
      }
    </style>
  </defs>
  <path class="cls-1" d="M266.51,320.74c.94-.4,1.89-.79,2.83-1.19,1.51,.18,2.58-.42,3.24-1.81,9-6.16,18.59-11.48,26.72-18.91,12.27-11.21,22.42-24.12,30.04-39.04,16.84-33.6,21.13-56.2,23.44-55.52,2.57,.76-7.58,43.36-13.27,52.88-12.19,21.87-27.79,40.85-47.81,55.61-16.37,12.06-35.24,19.2-53.97,26.7-25.5,10.22-51.79,8.49-78.21,8.09-19.91-.3-37.34-8.21-55.03-15.98-20.23-8.88-37.57-21.9-53.47-37.13-3.13-4.35-7.19-7.98-9.62-12.87-8.01-9.59-11.04-10.17-15.4-22.16-.62-1.71-2.59-3.64-.42-4.96,2.23-1.36,4.53,.09,5.73,2.28,2.11,3.86-.67-1.37,1.37,2.53,7.9,15.15,20.38,26.47,32.11,38.2,12.84,12.84,28.12,22.34,44.76,29.79,21.12,9.45,43.31,12.05,65.96,14.01,27.54,2.39,52.93-4.7,77.89-15.04,3.26-1.35,6.49-2.74,9.74-4.12,1.39,.22,2.58-.1,3.4-1.37Z"/>
  <path class="cls-2" d="M95.14,22.88c54.66-33.12,138.15-30.67,193.65,9.88,30.83,22.53,55.6,50.78,68.45,87.83,3.63,10.47,15.93,33.45,7.27,91.35-.18,1.21-7.57,10.94-7.17,9.78,9.69-28.45,3.62-73.97-.43-89.94-3.24-12.79-9.37-23.99-14.8-35.62-7.66-16.4-20.95-28.43-33.04-41.21-16.13-17.05-35.61-29.32-57.28-37.92-24.83-9.86-50.59-15.1-77.2-12.58-11.98,1.14-24.04,3.55-35.98,5.21-14.28,1.99-26.54,8.11-39.45,13.18-.66,.26-1.51,.03-4.02,.03Z"/>
  <path class="cls-2" d="M35.38,86.74c-1.6,3.38-3.71,6.37-6.64,8.71-3.49,.42-5.38,2.87-6.88,5.72-6.55,12.36-14.13,24.27-14.5,39.1-.06,2.46-.19,7.74-3.04,7.23-3.4-.61-1.64-5.42-1.39-8.26,1.19-13.44,6.57-25.57,12.91-37.1,10.1-18.35,21.02-36.36,36.82-50.29,11.93-10.52,23.79-21.42,38.47-28.19,1.2-.55,2.52-2.33,3.6-.25,.86,1.65-.67,2.74-1.89,3.49-3.57,2.18-6.7,4.88-9.65,7.86-1.14,1.15-1.38,1.95-.12,3.01-7.96,6.26-15.92,12.52-23.88,18.79-1.81-2.44-3.18-.45-4.66,.48-10.06,6.32-15.27,16.71-21.28,26.4-1.32,2.14,.24,2.98,2.13,3.31Z"/>
  <path class="cls-2" d="M173.49,353.04c1.95-.24,3.16-.59,4.34-.51,19.34,1.39,38.09-1.5,56.49-7.6,9.57-3.17,18.87-6.9,28.19-10.77,15.43-6.4,29.17-15.13,41.53-26.01,9.61-8.46,18.78-17.6,25.7-28.76,4.83-7.78,9.33-15.36,13.86-23.71,6.5-11.98,14.11-37.86,17.9-45.28,8.76-17.17,1.19,15.43-13.42,48.57-6.35,9.29-11.49,19.33-18.53,28.23-12.45,15.72-27,29.22-43.8,39.37-17.55,10.61-36.38,18.78-56.69,23.59-16.34,3.87-32.56,5.4-49.15,4.9-1.9-.06-4.11,.86-6.41-2.03Z"/>
  <path class="cls-2" d="M41.38,281.57c2.43,4.89,6.49,8.52,9.62,12.87-4.26,2.14-.69,3.24,.59,4.65,10.42,11.48,23.19,19.85,36.07,28.05,1.12,.71,2.07,1.28,2.24,2.68l.02-.02c-1.87,.05-3.64-.02-5.35-1.11-17.28-11.02-33.87-22.71-46.5-39.58-3.31-4.42-6.24-9.34-10.33-13.21-.89-.84-1.82-2.28-.79-3.31,1.58-1.57,2.6,.32,3.41,1.3,2.5,3.05,4.73,6.34,7.27,9.36,2.74,3.25,3.55,1.35,3.73-1.68Z"/>
  <path class="cls-2" d="M89.91,329.82c7.25,1.18,12.78,6.53,19.8,8.38,3.53,.93,6.79,2.88,10.24,4.18,1.81,.68,4.21,1.39,3.35,3.55-.99,2.5-2.69,0-4.05-.44-8.46-2.7-16.31-6.84-24.35-10.54-2.31-1.06-4.38-2.37-4.97-5.15,0,0-.02,.02-.02,.02Z"/>
  <path class="cls-2" d="M161.56,352.41c-4.25,2.78-7.71,3.33-11.1,2.14-4.13-1.45-8.39-1.85-12.62-2.61-1.35-.24-2.8-1.02-2.83-2.84-.02-1.04,1.04-1.68,1.65-1.39,7.51,3.56,16.25,.67,24.9,4.7Z"/>
  <path class="cls-2" d="M1.94,194.18c.74,5.92,1.29,10,1.74,14.1,.09,.79-.11,1.79-1.11,2-.92,.2-1.73-.41-1.77-1.27-.17-4.39-2.29-8.85,1.13-14.83Z"/>
  <path class="cls-2" d="M130.05,349.76c-1.65-.56-3.63-.87-3.8-3.23-.08-1.06,.93-1.38,1.71-1.24,1.85,.33,3.54,1.18,3.91,3.25,.19,1.04-.95,1.1-1.82,1.23Z"/>
  <path class="cls-2" d="M3.04,214.35c.13-.32,.27-.64,.4-.96,.32,.15,.79,.23,.9,.47,.1,.22-.22,.62-.35,.94-.32-.15-.63-.3-.95-.45Z"/>
  <path class="cls-3" d="M35.38,86.74c-1.89-.33-3.45-1.17-2.13-3.31,6.01-9.69,11.21-20.08,21.28-26.4,1.48-.93,2.84-2.92,4.66-.48-7.88,10.11-16.87,19.31-23.8,30.19Z"/>
  <path class="cls-1" d="M83.07,37.77c18.57-10.79,37.69-20.26,58.97-24.09,24.93-4.48,49.51-7.37,75.18-1.94,29.34,6.21,55.81,17.55,78.62,36.61,15.85,13.25,29.86,28.57,40.1,47.42,7.97,14.67,14.7,29.52,18.55,45.74,.97,4.09,.83,8.48,2.41,12.38,1.23,3.04-.26,18.42-2.51,18.93-2.53,.57-3.51-15.55-4-17.85-1.44-6.79-2.1-13.85-4.34-20.35-6.59-19.08-14.22-37.61-28.19-52.76-14.41-15.63-28.56-31.44-46.71-42.86-14.7-9.25-31.18-13.45-47.49-18.42-38.15-11.61-74.51-4.4-110.49,9.46-6.78,2.61-14.34,4.86-19.12,9.76-5.55,5.68-11.78,10.26-17.67,15.34-2.83,2.44-5.96,4.52-8.99,6.71-9.07,6.56-16.37,14.55-21.57,24.75-3.99,7.83-8.97,15.17-13.74,22.55-17.06,26.37-16.43,88.86-16.24,101.79,.14,9.19,7.77,31.33,4.21,30.63-4.14-.82-8.45-14.97-10.59-32.12-1.63-13.01-4.56-55.42,12.84-102.95,1.59-4.35,5.84-6.47,6.45-11.06,2.93-2.34,5.04-5.32,6.64-8.71,6.93-10.88,15.93-20.08,23.8-30.19,7.96-6.26,15.92-12.52,23.88-18.79Z"/>
  <path class="cls-2" d="M272.57,317.74c-.65,1.39-1.73,2-3.24,1.81,.44-1.79,1.55-2.34,3.24-1.81Z"/>
  <path class="cls-2" d="M266.51,320.74c-.82,1.26-2,1.58-3.4,1.37,.57-1.89,1.7-2.37,3.4-1.37Z"/>
</svg>