<?xml version="1.0" encoding="UTF-8"?>
<svg id="Layer_1" data-name="Layer 1" xmlns="http://www.w3.org/2000/svg" viewBox="0 0 473.38 86.69">
  <defs>
    <style>
      .cls-1 {
        fill: #523c2f;
      }

      .cls-2 {
        fill: #bbaca1;
      }
    </style>
  </defs>
  <path class="cls-1" d="M339.95,79.26c.17-.8,.35-1.61,.52-2.41,1.65-12.15,2.41-24.34,1.95-36.6,.18-5.64,.26-11.29,.6-16.92,.12-2.1-2.08-5.87,2.2-5.72,3.51,.12,8.27-2.15,10.33,3.16,1.48,3.81,3.34,7.55,4.24,11.5,1.76,7.67,6.08,14.23,8.05,22.58,2.75-2.6,2.31-4.99,2.28-7.08-.12-9.17,2.36-18.28,.75-27.48-.21-1.18,.21-1.9,1.37-2.39,5.72-2.43,10.54,1.25,10.14,7.5-.77,12.09-1.3,24.2-1.92,36.31-2.06,1.63-1.91,3.92-1.91,6.19,0,5.26-.05,10.53-.08,15.79-10.49-.77-13.66-4.03-16.06-15.34-1.54-7.24-3.95-14.26-7.58-20.78-.74-1.51-1.43-1.72-2.04,.08-.17,11.03-.35,22.06-.52,33.09-4.31,1.19-8.76,3.58-12.32-1.47Z"/>
  <path class="cls-1" d="M294.46,76.71c1.37-5.75,.75-11.61,.98-17.42,1.01-2.13,.92-4.3,.24-6.5,.31-8.75,.62-17.51,.93-26.26,1.01-2.12,1.28-4.23-.1-6.32-.08-1.27-.15-2.54-.23-3.8,.5-.35,1-.7,1.5-1.06,1.22,.04,2.44,.08,3.66,.12,5.45,1.56,10.97,1.34,16.51,.69,2.28,.27,4.55,.54,6.83,.81,4.86,4.28,6.8,9.54,5.65,16-.28,1.58,.14,3.28,.24,4.93-.71,6.84,1.19,14.44-5.78,19.43-1.24,.89-1.22,2.07-.56,3.32,2.91,5.57,1.54,11.98,3.5,17.8,1.14,3.38-2.4,3.4-4.23,3.48-2.73,.11-6.44,1.71-7.02-3.57-.64-5.8-2.09-11.51-3.13-17.26-.45-2.52-1.39-4.52-4.39-4.18-2.98,.34-2.65,2.81-2.74,4.83-.23,5.02-.8,10.05-.03,15.08-.52,1.55-1.04,3.1-1.55,4.65-3.18-.28-6.36-.56-9.54-.83-.24-1.31-.49-2.62-.73-3.93Zm13.56-32.64c1.08,5.04,4.97,1.89,7.5,2.39,2.34,.46,3.73-1.43,3.97-3.77,.36-3.48,.67-6.97,.86-10.46,.14-2.54-.65-4.5-3.68-4.58-9.2-1-9.25-1-9.19,7.75,.02,2.89-.77,5.85,.54,8.67Z"/>
  <path class="cls-1" d="M467.7,71.83c.21,2.05,.41,4.1,.62,6.15-.56,2.59,1.72,5.4-.58,7.86-2.93-.14-5.86-.29-8.8-.43-2.01-3.42,.31-7.83-2.52-11.07-.44-3.11-.81-6.24-1.35-9.33-.45-2.59-2.06-4.22-4.74-4.09-2.79,.13-3.06,2.35-3.13,4.56-.15,5.02-.8,10.08-.33,15.04,.35,3.72-.78,4.78-3.99,4.04-2.78-.64-7.8,2.56-7.19-4.35,.81-9.18,.78-18.44,1.69-27.61,.95-9.62,1.09-19.24,1.3-28.88,.04-1.68-.47-3.75,2.02-3.71,8.78,.16,17.56,.46,26.34,.89,1.12,.05,2.19,1.17,3.28,1.79,.04,1.57,.79,2.48,2.41,2.57-.14,5.85-.29,11.7-.43,17.55-.84,.8-.97,1.7-.37,2.7-.56,3.76-1.12,7.51-1.69,11.27-1.86-.1-3.06,.8-3.77,2.46,0,0-.04,.04-.04,.04-5.31,4.76,.74,8.38,1.27,12.55Zm-6.43-31.73c.11-1.46,.25-2.91,.34-4.37,.24-4.12-2.73-4.7-5.75-5.05-3.14-.36-6.22,.13-6.73,3.86-.54,3.91-.4,7.92-.5,11.89-.06,2.08,1.32,2.77,3.1,3.27,6.72,1.91,8.72-.08,9.54-9.59Z"/>
  <path class="cls-1" d="M284.13,53.02c-.26,4.96-.93,9.94-.66,14.86,.29,5.3-1.32,9.27-5.73,12.13-7.23-.05-14.46-.1-21.69-.14-1.59-1.03-3.17-2.07-4.76-3.1-.53-.8-1.06-1.6-1.59-2.4,0-6.73,.01-13.47,.02-20.2,2.2-11.24,.91-22.63,1.45-33.94,6.89-6.83,25.27-7.44,32.4-1.08,.5,.77,1.01,1.55,1.51,2.32-.02,1.25-.05,2.51-.07,3.76-1.35,9.23-1.31,18.5-.89,27.78Zm-19.09,17.38c2.86,.19,6.56,1.04,6.82-3.12,.79-12.28,1.3-24.59,1.49-36.89,.07-4.57-4.58-3.33-7.17-3.96-1.99-.48-4.91,.27-4.79,3.49,.48,12.7-1.23,25.4-.01,38.1-.22,2.99,1.73,2.67,3.65,2.38Z"/>
  <path class="cls-1" d="M69.76,11.52c.41,12.9,4.26,25.08,8.06,37.23,2.42,7.71,2.21,16,5.76,23.46,1.55,3.26-2.15,2.29-3.38,2.76-2.86,1.08-6.16,2.23-7.98-1.8-.33-.72-.18-1.65-.29-2.48-1.16-8.55-6.28-11.64-14.53-9.04-2.8,.88-2.37,3.03-2.76,5-1.62,8.17-2.05,8.38-10.06,7.81-3.21-.23-3.6-1.05-2.75-4.23,4.7-17.54,8.97-35.2,13.61-52.75,.75-2.85-1.81-7.99,4.46-7.8,2.72,3.64,6.72,.48,9.86,1.87Zm-10.89,34.11c-.48,3.93,2.02,4.45,5.04,4.47,3.43,.02,3.59-2.09,3.1-4.63-.7-3.65-1.43-7.3-2.16-10.94-.24-1.2-.34-2.78-1.92-2.71-1.43,.06-1.75,1.5-1.99,2.79-.66,3.68-1.38,7.35-2.08,11.03Z"/>
  <path class="cls-1" d="M233.63,14.72c4.64,3.4,8.15,13.1,6,18.22-1.81,4.31-5.8,1.67-8.87,1.83-2.72,.14-3.95-1.13-3.18-3.86,1.49-5.31-1.74-5.91-5.79-6.23-4.84-.39-6.18,1.67-5.92,6.27,.33,5.63-.05,11.3-.12,16.95-1.52,4.6-.88,9.3-.65,13.98-.03,1.19-.05,2.38-.08,3.58,.62,3.67,3.17,3.75,6.04,3.24,.75,0,1.49,.01,2.24,.02,1.76,.37,3.39,.54,3.35-2.05q.42-7.83,11.75-7.32c.25,.86,.5,1.71,.75,2.57-1.19,2.12-.81,4.43-.9,6.7-.34,8.78-5.61,12.56-14.27,10.73-3-.63-6.2-.41-9.31-.37-5.17,.07-8.79-1.95-10.39-7.06,.42-1.75,.5-3.5-.13-5.23,.42-14.78,1.12-29.56,.4-44.36-.22-4.61,4.41-8.49,10.12-8.42,2.5,.03,4.99,.13,7.49,.2,3.76,1.33,7.63,.76,11.47,.61Z"/>
  <path class="cls-1" d="M426.42,76.94c-.9,6.15-4.3,8.04-10.48,7.36-6.43-.71-12.99-.34-19.49-.2-3.45,.07-4.73-.79-4.48-4.66,1.18-18.62,2.16-37.25,2.83-55.89,.15-4.16,.83-5.42,5.32-4.93,7.48,.82,15.07,.69,22.61,.98,2.51,.1,5.18-.08,6.18,3.08-.39,3.52,1.74,8.77-5.31,7.69-3.32-.18-6.64-.41-9.96-.53q-8.23-.3-7.93,7.97c-1.13,2.55-1.86,5.04,1.1,6.95,.81,.83,1.81,1.05,2.92,.89,6.05,1.44,7.73,6.73,3.7,11.64-2.44-.46-4.88-.89-7.37-.31-1.9-.17-2.19,.89-1.86,2.43,0,.74,0,1.48-.01,2.22,0,.91,0,1.83,0,2.74-.21,2.73-1.59,5.63,1.21,7.9,5.23,3.53,11.02,4.09,16.85,2.38,2.75-.81,3.84-.41,4.15,2.31Z"/>
  <path class="cls-1" d="M34,66.95c-2.26,5.16-5.88,7.8-11.82,7.16-4.15-.45-8.39-.07-12.57-.32-5.43-.33-9.45-4.18-9.51-9.56C-.05,48.3-.02,32.37,.08,16.45c.03-5.53,3.85-7.72,8.66-7.9,5.43-.2,10.91,.04,16.34,.5,5.92,.5,8.69,3.85,8.87,9.97,.04,1.47,.03,2.93,.12,4.4,.17,2.69,2.09,6.44-3.11,6.13-3.64-.22-8.93,2.01-8.25-5.63,.49-5.46-4.78-4.26-7.91-4.71-3.61-.52-4.35,1.97-4.28,5.23,.19,9.85,.14,19.7,.14,29.56,0,7.44,1.75,9.9,7.15,9.67,7.19-.3,4.24-5.62,4.56-9.31,1.17-.18,2.33-.37,3.5-.55,2.67,1.84,8.52-2.92,8.66,4.17-1.18,1.2-1.01,2.55-.46,3.95-.03,.73-.06,1.47-.09,2.2,0,.94,.01,1.88,.02,2.82Z"/>
  <path class="cls-1" d="M94.23,10.48c8.97,.25,17.94,.69,26.91,.66,5.38-.02,7.29,2.28,7.59,7.49,.22,3.72-.86,4.22-4.13,3.88-4.56-.47-9.18-.29-13.75-.64-3.43-.26-6.12,.53-5.98,4.4,.16,4.08-1.85,11.18,3.4,11.18,8.79,0,8.27,4.84,8.44,10.4-.98,.65-1.96,1.3-2.94,1.95-2.65-.53-5.3-1.16-7.96,0-3.23,6.8-1.59,13.85-1.07,20.84,1.15,4.1,.11,6.37-4.63,5.57-1.7-.95-3.45-.61-5.2-.16-.51-.53-1.02-1.06-1.52-1.58,.11-1.29,.22-2.59,.33-3.88,.21-19.28,.9-38.56-.17-57.83,.23-.75,.45-1.51,.68-2.26Z"/>
  <path class="cls-2" d="M342.42,40.24c.46,12.26-.3,24.46-1.95,36.6-2.01-12.34-.66-24.51,1.95-36.6Z"/>
  <path class="cls-2" d="M251.18,20.24c-.54,11.31,.75,22.7-1.45,33.94-2.15-10.64-.55-21.37-.71-32.05-.02-1.13,1.07-1.67,2.16-1.88Z"/>
  <path class="cls-2" d="M378.48,83.68c.03-5.26,.08-10.53,.08-15.79,0-2.28-.15-4.57,1.91-6.19,3.25,6.97,.37,14.26,.99,21.38,.11,1.27-1.73,1.46-2.98,.61Z"/>
  <path class="cls-1" d="M150.98,7.87c-1.48-.42-3.07,.38-3.42-1.48-.26-1.37,7.64-6.31,10.06-6.38,2.01-.06,3.68,.84,3.18,2.83-1.38,5.47-6.9,3.01-9.82,5.04Z"/>
  <path class="cls-2" d="M339.95,79.26c3.57,5.05,8.02,2.66,12.32,1.47-.71,5.18-4.54,5.6-8.67,5.94-4.48,.38-4.14-3.81-5.85-5.96-.51-.64,1.22-1.24,2.2-1.45Z"/>
  <path class="cls-2" d="M284.13,53.02c-.43-9.28-.47-18.55,.89-27.78,1.61,9.32,2.84,18.63-.89,27.78Z"/>
  <path class="cls-2" d="M426.42,76.94c-.31-2.72-1.4-3.11-4.15-2.31-5.84,1.71-11.62,1.15-16.85-2.38,6.39,.54,12.77,1.56,19.16-.21,1.38-.38,3.09-.25,3.66,1.52,.51,1.58-.06,2.87-1.82,3.38Z"/>
  <path class="cls-2" d="M137.36,49.05c.31,8.03,1.44,16.09-.82,24.03-1.36-8.07-2.6-16.13,.82-24.03Z"/>
  <path class="cls-2" d="M147.78,77.34c7.43-1.39,15.03,1.02,22.42-1.03-.27,.74-.49,2.11-.82,2.14-7.24,.64-14.58,2.51-21.6-1.11Z"/>
  <path class="cls-2" d="M256.06,79.88c7.23,.05,14.46,.1,21.69,.14-7.25,2.94-14.48,2.85-21.69-.14Z"/>
  <path class="cls-2" d="M413.45,57.28c4.03-4.91,2.34-10.21-3.7-11.64,2.64-1.99,5.42-2.17,7.78,.18,1.38,1.38-.64,11.88-2.25,12.64-.82,.39-1.52-.3-1.82-1.18Z"/>
  <path class="cls-2" d="M104.74,70.63c-.52-6.99-2.16-14.04,1.07-20.84,.07,6.97,1.91,14.03-1.07,20.84Z"/>
  <path class="cls-2" d="M317.96,16.16c-5.54,.65-11.06,.87-16.51-.69,5.57-1.41,11.15-2.85,16.51,.69Z"/>
  <path class="cls-2" d="M423.62,30.35c7.05,1.08,4.92-4.17,5.31-7.69,3.05,2.64,4.12,6.14,1.41,9.05-1.64,1.77-5.06,2.01-6.72-1.36Z"/>
  <path class="cls-2" d="M215.11,61.87c-.22-4.68-.87-9.38,.65-13.98,1.68,4.75,2.55,9.46-.65,13.98Z"/>
  <path class="cls-2" d="M456.43,74.34c2.82,3.24,.51,7.65,2.52,11.07-1.54,1.8-2.79,1.03-2.94-.78-.29-3.42-1.82-6.96,.42-10.29Z"/>
  <path class="cls-2" d="M233.63,14.72c-3.84,.15-7.71,.72-11.47-.61,3.93-1.73,7.8-2.48,11.47,.61Z"/>
  <path class="cls-2" d="M467.7,71.83c-.52-4.17-6.58-7.79-1.27-12.55-.77,4.3,2.83,8.17,1.27,12.55Z"/>
  <path class="cls-2" d="M467.74,85.84c2.31-2.46,.03-5.27,.58-7.86,3.92,5.43,3.8,7.11-.58,7.86Z"/>
  <path class="cls-2" d="M150.26,38.1c-3.25-2.17-1.87-5.05-1.21-7.82,2.22,2.32,.9,5.2,1.21,7.82Z"/>
  <path class="cls-2" d="M295.68,52.79c.68,2.19,.77,4.37-.24,6.5-1.78-2.24-2-4.41,.24-6.5Z"/>
  <path class="cls-2" d="M221.07,68.69c-2.87,.51-5.42,.42-6.04-3.24,1.97,1.17,4.67,.97,6.04,3.24Z"/>
  <path class="cls-2" d="M296.52,20.21c1.38,2.09,1.1,4.2,.1,6.32-1.84-2.08-1.74-4.19-.1-6.32Z"/>
  <path class="cls-2" d="M406.82,44.74c-2.96-1.91-2.22-4.4-1.1-6.95,2.07,2.05,1.14,4.57,1.1,6.95Z"/>
  <path class="cls-2" d="M304.74,81.48c.52-1.55,1.04-3.1,1.55-4.65,1.59,2.25,2.68,4.34-1.55,4.65Z"/>
  <path class="cls-2" d="M170.87,71.92c-.11-1.7-.23-3.4-.34-5.09,4.07,1.43,3.05,3.21,.34,5.09Z"/>
  <path class="cls-2" d="M204.15,66.69c.62,1.73,.55,3.47,.13,5.23-2.97-1.67-2.89-3.42-.13-5.23Z"/>
  <path class="cls-2" d="M94.91,76.03c1.75-.45,3.49-.79,5.2,.16-1.82,2.86-3.57,3.22-5.2-.16Z"/>
  <path class="cls-2" d="M113.77,49.79c.98-.65,1.96-1.3,2.94-1.95,1.19,.29,2.11,1.03,1.05,2.09-1.15,1.14-2.75,2.26-3.99-.14Z"/>
  <path class="cls-2" d="M25.88,53.8c-1.17,.18-2.33,.37-3.5,.55-.88-.43-1.42-1.3-.54-1.86,1.66-1.05,3.2-.69,4.04,1.31Z"/>
  <path class="cls-2" d="M34.08,61.93c-.55-1.4-.72-2.75,.46-3.95,1.49,1.51,1.51,2.84-.46,3.95Z"/>
  <path class="cls-2" d="M226.65,66.66c.05,2.58-1.59,2.42-3.35,2.05,.51-1.67,1.9-1.91,3.35-2.05Z"/>
  <path class="cls-2" d="M93.72,70.57c-.11,1.29-.22,2.59-.33,3.88-2.78-1.54-2.52-2.82,.33-3.88Z"/>
  <path class="cls-2" d="M294.46,76.71c.24,1.31,.49,2.62,.73,3.93-3.02-.79-3.03-2.15-.73-3.93Z"/>
  <path class="cls-2" d="M466.48,59.24c.7-1.66,1.91-2.56,3.77-2.46-.23,2.38-1.97,2.47-3.77,2.46Z"/>
  <path class="cls-2" d="M34,66.95c0-.94-.01-1.88-.02-2.82,1.94,.93,1.95,1.87,.02,2.82Z"/>
  <path class="cls-2" d="M239.15,61.9c-.25-.86-.5-1.71-.75-2.57,2.15,.3,3.01,.98,.75,2.57Z"/>
  <path class="cls-2" d="M472.73,25.26c-1.62-.09-2.37-.99-2.41-2.57,1.5,.2,2.33,1.04,2.41,2.57Z"/>
  <path class="cls-2" d="M297.78,15.35c-.5,.35-1,.7-1.5,1.06-.16-.51-.61-1.28-.43-1.47,.73-.79,1.41-.34,1.93,.41Z"/>
  <path class="cls-2" d="M249.71,74.38c.53,.8,1.06,1.6,1.59,2.4-1.47-.18-2.86-.41-1.59-2.4Z"/>
  <path class="cls-2" d="M157.92,50.66c.79-.18,1.58-.37,2.37-.55,.18,.85,.11,1.73-.84,1.96-.99,.24-1.38-.54-1.53-1.41Z"/>
  <path class="cls-2" d="M404.21,64.36c0-.91,0-1.83,0-2.74,1.52,.91,1.68,1.83,0,2.74Z"/>
  <path class="cls-2" d="M285.09,21.49c-.5-.77-1.01-1.55-1.51-2.32,1.5,.13,2.93,.3,1.51,2.32Z"/>
  <path class="cls-2" d="M471.93,45.51c-.6-1-.47-1.9,.37-2.7,1.65,1.14,1.33,2.02-.37,2.7Z"/>
  <path class="cls-2" d="M404.22,59.39c-.33-1.54-.05-2.6,1.86-2.43-.16,1.16-.79,1.96-1.86,2.43Z"/>
  <path class="cls-2" d="M94.23,10.48c-.23,.75-.45,1.51-.68,2.26-.86-.17-1.73-.52-1.4-1.55,.29-.95,1.24-.89,2.08-.71Z"/>
  <path class="cls-2" d="M157.77,38.28l-.25,.27s-.34-.14-.34-.14c-.07-.66-.14-1.32-.21-1.99,.27,.62,.54,1.24,.81,1.86Z"/>
  <path class="cls-2" d="M352.8,47.63c.61-1.8,1.3-1.58,2.04-.08-.68,.03-1.36,.05-2.04,.08Z"/>
  <path class="cls-2" d="M308.02,44.07c10.23,.79,12.69-3.88,8.65-16.42,3.03,.07,3.82,2.04,3.68,4.58-.2,3.49-.51,6.98-.86,10.46-.24,2.34-1.63,4.23-3.97,3.77-2.53-.5-6.42,2.64-7.5-2.39Z"/>
  <path class="cls-2" d="M265.04,70.4c-1.92,.29-3.87,.61-3.65-2.38"/>
  <path class="cls-1" d="M170.87,71.92c-.22,1.46-.44,2.93-.66,4.39-7.4,2.05-15-.37-22.42,1.03-2.64-.14-5.27-.38-7.91-.39-2.72-.01-3.57-1.42-3.34-3.87,2.26-7.94,1.14-16,.82-24.03,.03-4.96,.06-9.92,.08-14.88,.87-3.8,.98-7.62,.31-11.46,.03-.83,.06-1.66,.09-2.49,.9-1.25,.94-2.51,.01-3.77-.15-.81-.29-1.63-.44-2.44,3.54-3.12,8.07-.64,11.91-2.1,3.74,.17,7.49,.32,11.23,.53,11.96,.66,9.7-1.66,12.28,9.92-4.48,1.81-9.16-.75-13.66,.63-2.48-.02-4.95-.04-7.43-.05-3.91-.07-3.63,2.24-2.78,4.88,.03,.82,.06,1.64,.09,2.46-.66,2.77-2.04,5.65,1.21,7.82,2.24,1.72,4.57,1.27,6.92,.3,0,0,.34,.14,.34,.14l.25-.27c5.45,2.96,1.53,7.92,2.51,11.83-.79,.18-1.58,.37-2.37,.55-2.99-.49-7.1-2.84-8.67,.26-1.99,3.94-1.63,8.97-.39,13.42,.64,2.31,3.24,2.4,5.35,2.43,5.44,.07,10.88,.05,16.32,.07,.11,1.7,.23,3.4,.34,5.09Z"/>
  <path class="cls-2" d="M149.32,11.91c-3.84,1.46-8.37-1.02-11.91,2.1-2.41-1.34-2.6-3.25,.2-3.47,3.88-.3,8.13-1.62,11.71,1.37Z"/>
  <path class="cls-2" d="M159.17,22.98c4.5-1.38,9.18,1.17,13.66-.63-2.57,3.72-9.51,4.04-13.66,.63Z"/>
  <path class="cls-2" d="M137.75,22.71c.67,3.84,.56,7.66-.31,11.46-2.75-3.9-3.66-7.75,.31-11.46Z"/>
  <path class="cls-2" d="M69.76,11.52c-3.14-1.39-7.15,1.77-9.86-1.87,3.46-.31,7.4-3.08,9.86,1.87Z"/>
  <path class="cls-2" d="M148.96,27.81c-.85-2.64-1.13-4.95,2.78-4.88-.62,1.8-1.24,3.6-2.78,4.88Z"/>
  <path class="cls-2" d="M137.85,16.45c.93,1.26,.89,2.52-.01,3.77-1.41-1.26-1.42-2.52,.01-3.77Z"/>
</svg>